<svg class="diagram-root" style="background: #f5f6f6" xmlns="http://www.w3.org/2000/svg" xmlns:xlink="http://www.w3.org/1999/xlink"><style>.diagram-root { font-family: "Helvetica Neue", sans-serif; font-size: 12px; } .t { overflow: visible; } .t-bg { y: 40; fill: #fff;   } .th { fill: #005aa0;   } .tht { fill: #fff; font-size: 14px;  } .tf { fill: #323c46; overflow: visible; } .tf.pk { fill: #005aa0; font-weight: bold; } .tf.fk { font-weight: bold; } .ty { fill: #adb1b5; font-weight: normal; text-anchor: end; } .r { fill: transparent; stroke: #c3c3c3; stroke-width: 1; } .l { stroke: 1; } .i { fill: #c2c7ce; stroke: #c2c7ce; } .i.ix { fill: #afb3b6; stroke: #000; } .fa { fill: transparent; overflow: visible; } .fa .bg.hover { fill: #f7f7f7; } .c { cy: 12; r: 4; stroke: #d2d2dc; fill: #d2d2dc; } .hr { fill: transparent; stroke: #323c46; stroke-opacity: 0.035; stroke-width: 13; } .dc { stroke: #fa5a3c; fill: #fa5a3c; } .x { stroke: white; stroke-width: 1; } .hl .th { fill: #1b9bff; } .hl .tht {  } .fhl .bg { fill: #e7f4ff; } .fhls .bg {  } .r.hl { stroke: #1b9bff; } .dim { opacity: 0.25; }</style><g class="drawing-wrapper" transform="translate(51.999999999999844, 59.16666666666667) scale(1,1)"><g class="rs"><path d="M 491 214.49999999999977 m -1, 0 a 1,1 0 1,0 2,0 a 1,1 0 1,0 -2,0 M 491 214.49999999999977 m -0.5, 0 a 0.5,0.5 0 1,0 1,0 a 0.5,0.5 0 1,0 -1,0  M491 214.49999999999977 L491 214.49999999999977 503 214.49999999999977 M 491 220.49999999999977 m -1, 0 a 1,1 0 1,0 2,0 a 1,1 0 1,0 -2,0 M 491 220.49999999999977 m -0.5, 0 a 0.5,0.5 0 1,0 1,0 a 0.5,0.5 0 1,0 -1,0  M491 220.49999999999977 L491 220.49999999999977 498 214.49999999999977 491 208.49999999999977 M 491 208.49999999999977 m -1, 0 a 1,1 0 1,0 2,0 a 1,1 0 1,0 -2,0 M 491 208.49999999999977 m -0.5, 0 a 0.5,0.5 0 1,0 1,0 a 0.5,0.5 0 1,0 -1,0  M503 214.49999999999977 Q 547.79 214.49999999999977, 592.58 284.5 T 682.1666666666666 354.5 M 694.1666666666666 354.5 m -1, 0 a 1,1 0 1,0 2,0 a 1,1 0 1,0 -2,0 M 694.1666666666666 354.5 m -0.5, 0 a 0.5,0.5 0 1,0 1,0 a 0.5,0.5 0 1,0 -1,0  M694.1666666666666 354.5 L694.1666666666666 354.5 682.1666666666666 354.5 M688.1666666666666 360.5 L688.1666666666666 360.5 688.1666666666666 348.5" id="h133153459" class="r"></path><path d="M 117.17 72.83333333333363 m -1, 0 a 1,1 0 1,0 2,0 a 1,1 0 1,0 -2,0 M 117.17 72.83333333333363 m -0.5, 0 a 0.5,0.5 0 1,0 1,0 a 0.5,0.5 0 1,0 -1,0  M117.17 72.83333333333363 L117.17 72.83333333333363 129.17000000000002 72.83333333333363 M 117.17 78.83333333333363 m -1, 0 a 1,1 0 1,0 2,0 a 1,1 0 1,0 -2,0 M 117.17 78.83333333333363 m -0.5, 0 a 0.5,0.5 0 1,0 1,0 a 0.5,0.5 0 1,0 -1,0  M117.17 78.83333333333363 L117.17 78.83333333333363 124.17 72.83333333333363 117.17 66.83333333333363 M 117.17 66.83333333333363 m -1, 0 a 1,1 0 1,0 2,0 a 1,1 0 1,0 -2,0 M 117.17 66.83333333333363 m -0.5, 0 a 0.5,0.5 0 1,0 1,0 a 0.5,0.5 0 1,0 -1,0  M129.17000000000002 72.83333333333363 Q 174.5 72.83333333333363, 219.83 131.17 T 310.49999999999983 189.49999999999977 M 322.49999999999983 189.49999999999977 m -1, 0 a 1,1 0 1,0 2,0 a 1,1 0 1,0 -2,0 M 322.49999999999983 189.49999999999977 m -0.5, 0 a 0.5,0.5 0 1,0 1,0 a 0.5,0.5 0 1,0 -1,0  M322.49999999999983 189.49999999999977 L322.49999999999983 189.49999999999977 310.49999999999983 189.49999999999977 M316.49999999999983 195.49999999999977 L316.49999999999983 195.49999999999977 316.49999999999983 183.49999999999977" id="h1736270986" class="r"></path><path d="M 117.17 97.83333333333364 m -1, 0 a 1,1 0 1,0 2,0 a 1,1 0 1,0 -2,0 M 117.17 97.83333333333364 m -0.5, 0 a 0.5,0.5 0 1,0 1,0 a 0.5,0.5 0 1,0 -1,0  M117.17 97.83333333333364 L117.17 97.83333333333364 129.17000000000002 97.83333333333364 M 117.17 103.83333333333364 m -1, 0 a 1,1 0 1,0 2,0 a 1,1 0 1,0 -2,0 M 117.17 103.83333333333364 m -0.5, 0 a 0.5,0.5 0 1,0 1,0 a 0.5,0.5 0 1,0 -1,0  M117.17 103.83333333333364 L117.17 103.83333333333364 124.17 97.83333333333364 117.17 91.83333333333364 M 117.17 91.83333333333364 m -1, 0 a 1,1 0 1,0 2,0 a 1,1 0 1,0 -2,0 M 117.17 91.83333333333364 m -0.5, 0 a 0.5,0.5 0 1,0 1,0 a 0.5,0.5 0 1,0 -1,0  M129.17000000000002 97.83333333333364 Q 162.63 97.83333333333364, 196.09 62.83 T 263 27.83333333333333 M 275 27.83333333333333 m -1, 0 a 1,1 0 1,0 2,0 a 1,1 0 1,0 -2,0 M 275 27.83333333333333 m -0.5, 0 a 0.5,0.5 0 1,0 1,0 a 0.5,0.5 0 1,0 -1,0  M275 27.83333333333333 L275 27.83333333333333 263 27.83333333333333 M269 33.83333333333333 L269 33.83333333333333 269 21.83333333333333" id="h3233325729" class="r"></path><path d="M 648.333333333334 138.66666666666674 m -1, 0 a 1,1 0 1,0 2,0 a 1,1 0 1,0 -2,0 M 648.333333333334 138.66666666666674 m -0.5, 0 a 0.5,0.5 0 1,0 1,0 a 0.5,0.5 0 1,0 -1,0  M648.333333333334 138.66666666666674 L648.333333333334 138.66666666666674 636.333333333334 138.66666666666674 M 648.333333333334 144.66666666666674 m -1, 0 a 1,1 0 1,0 2,0 a 1,1 0 1,0 -2,0 M 648.333333333334 144.66666666666674 m -0.5, 0 a 0.5,0.5 0 1,0 1,0 a 0.5,0.5 0 1,0 -1,0  M648.333333333334 144.66666666666674 L648.333333333334 144.66666666666674 641.333333333334 138.66666666666674 648.333333333334 132.66666666666674 M 648.333333333334 132.66666666666674 m -1, 0 a 1,1 0 1,0 2,0 a 1,1 0 1,0 -2,0 M 648.333333333334 132.66666666666674 m -0.5, 0 a 0.5,0.5 0 1,0 1,0 a 0.5,0.5 0 1,0 -1,0  M636.333333333334 138.66666666666674 Q 590.79 138.66666666666674, 545.25 83.25 T 454.17 27.83333333333333 M 442.17 27.83333333333333 m -1, 0 a 1,1 0 1,0 2,0 a 1,1 0 1,0 -2,0 M 442.17 27.83333333333333 m -0.5, 0 a 0.5,0.5 0 1,0 1,0 a 0.5,0.5 0 1,0 -1,0  M442.17 27.83333333333333 L442.17 27.83333333333333 454.17 27.83333333333333 M448.17 33.83333333333333 L448.17 33.83333333333333 448.17 21.83333333333333" id="h639454232" class="r"></path><path d="M 648.333333333334 163.66666666666674 m -1, 0 a 1,1 0 1,0 2,0 a 1,1 0 1,0 -2,0 M 648.333333333334 163.66666666666674 m -0.5, 0 a 0.5,0.5 0 1,0 1,0 a 0.5,0.5 0 1,0 -1,0  M648.333333333334 163.66666666666674 L648.333333333334 163.66666666666674 636.333333333334 163.66666666666674 M642.333333333334 169.66666666666674 L642.333333333334 169.66666666666674 642.333333333334 157.66666666666674 M636.333333333334 163.66666666666674 Q 603 163.66666666666674, 569.67 176.58 T 503 189.49999999999977 M 491 189.49999999999977 m -1, 0 a 1,1 0 1,0 2,0 a 1,1 0 1,0 -2,0 M 491 189.49999999999977 m -0.5, 0 a 0.5,0.5 0 1,0 1,0 a 0.5,0.5 0 1,0 -1,0  M491 189.49999999999977 L491 189.49999999999977 503 189.49999999999977 M497 195.49999999999977 L497 195.49999999999977 497 183.49999999999977" id="h1499507187" class="r"></path><path d="M 132.7 349.50000000000017 m -1, 0 a 1,1 0 1,0 2,0 a 1,1 0 1,0 -2,0 M 132.7 349.50000000000017 m -0.5, 0 a 0.5,0.5 0 1,0 1,0 a 0.5,0.5 0 1,0 -1,0  M132.7 349.50000000000017 L132.7 349.50000000000017 144.7 349.50000000000017 M138.7 355.50000000000017 L138.7 355.50000000000017 138.7 343.50000000000017 M144.7 349.50000000000017 Q 186.15 349.50000000000017, 227.6 269.5 T 310.49999999999983 189.49999999999977 M 322.49999999999983 189.49999999999977 m -1, 0 a 1,1 0 1,0 2,0 a 1,1 0 1,0 -2,0 M 322.49999999999983 189.49999999999977 m -0.5, 0 a 0.5,0.5 0 1,0 1,0 a 0.5,0.5 0 1,0 -1,0  M322.49999999999983 189.49999999999977 L322.49999999999983 189.49999999999977 310.49999999999983 189.49999999999977 M316.49999999999983 195.49999999999977 L316.49999999999983 195.49999999999977 316.49999999999983 183.49999999999977" id="h221257298" class="r"></path></g><g class="hrs"></g><g class="ts"><svg width="167.17" height="100" x="275" y="-29.16666666666667" id="h3708248841" class="t"><rect height="40" width="167.17" class="th"></rect><text x="13" y="25" class="tht">Departments</text><rect height="60" width="167.17" class="t-bg"></rect><text x="13" y="61" class="tf pk">dept_no<tspan x="154.17" class="ty">VARCHAR</tspan></text><path d="M7,14A2,2 0 0,1 5,12A2,2 0 0,1 7,10A2,2 0 0,1 9,12A2,2 0 0,1 7,14M12.65,10C11.83,7.67 9.61,6 7, 6A6, 6 0 0, 0 1, 12A6, 6 0 0, 0 7, 18C9.61, 18 11.83, 16.33 12.65, 14H17V18H21V14H23V10H12.65Z" class="i pk" transform="translate(76.37898437499999, 48) scale(0.65)"></path><text x="13" y="86" class="tf">dept_name<tspan x="154.17" class="ty">VARCHAR</tspan></text></svg><svg width="147.17" height="100" x="-29.999999999999844" y="15.833333333333636" id="h4086156755" class="t"><rect height="40" width="147.17" class="th"></rect><text x="13" y="25" class="tht">Dept_emp</text><rect height="60" width="147.17" class="t-bg"></rect><text x="13" y="61" class="tf fk">emp_no<tspan x="134.17" class="ty">VARCHAR</tspan></text><text x="13" y="86" class="tf fk">dept_no<tspan x="134.17" class="ty">VARCHAR</tspan></text></svg><svg width="147.17" height="100" x="648.333333333334" y="81.66666666666676" id="h2403958395" class="t"><rect height="40" width="147.17" class="th"></rect><text x="13" y="25" class="tht">Dept_manager</text><rect height="60" width="147.17" class="t-bg"></rect><text x="13" y="61" class="tf fk">dept_no<tspan x="134.17" class="ty">VARCHAR</tspan></text><text x="13" y="86" class="tf fk">emp_no<tspan x="134.17" class="ty">INTEGER</tspan></text></svg><svg width="168.5" height="225" x="322.49999999999983" y="132.49999999999977" id="h3299212598" class="t"><rect height="40" width="168.5" class="th"></rect><text x="13" y="25" class="tht">Employees</text><rect height="185" width="168.5" class="t-bg"></rect><text x="13" y="61" class="tf pk">emp_no<tspan x="155.5" class="ty">INTEGER</tspan></text><path d="M7,14A2,2 0 0,1 5,12A2,2 0 0,1 7,10A2,2 0 0,1 9,12A2,2 0 0,1 7,14M12.65,10C11.83,7.67 9.61,6 7, 6A6, 6 0 0, 0 1, 12A6, 6 0 0, 0 7, 18C9.61, 18 11.83, 16.33 12.65, 14H17V18H21V14H23V10H12.65Z" class="i pk" transform="translate(82.162109375, 48) scale(0.65)"></path><text x="13" y="86" class="tf fk">emp_title_id<tspan x="155.5" class="ty">VARCHAR</tspan></text><text x="13" y="111" class="tf">birth_date<tspan x="155.5" class="ty">DATE</tspan></text><text x="13" y="136" class="tf">first_name<tspan x="155.5" class="ty">VARCHAR</tspan></text><text x="13" y="161" class="tf">last_name<tspan x="155.5" class="ty">VARCHAR</tspan></text><text x="13" y="186" class="tf">sex<tspan x="155.5" class="ty">VARCHAR</tspan></text><text x="13" y="211" class="tf">hire_date<tspan x="155.5" class="ty">DATE</tspan></text></svg><svg width="142.7" height="100" x="-10.000000000000004" y="292.50000000000017" id="h3858243705" class="t"><rect height="40" width="142.7" class="th"></rect><text x="13" y="25" class="tht">Salaries</text><rect height="60" width="142.7" class="t-bg"></rect><text x="13" y="61" class="tf fk">emp_no<tspan x="129.7" class="ty">INTEGER</tspan></text><text x="13" y="86" class="tf">salary<tspan x="129.7" class="ty">INTEGER</tspan></text></svg><svg width="158.48" height="100" x="694.1666666666666" y="297.5" id="h3517680912" class="t"><rect height="40" width="158.48" class="th"></rect><text x="13" y="25" class="tht">Titles</text><rect height="60" width="158.48" class="t-bg"></rect><text x="13" y="61" class="tf pk">title_id<tspan x="145.48" class="ty">VARCHAR</tspan></text><path d="M7,14A2,2 0 0,1 5,12A2,2 0 0,1 7,10A2,2 0 0,1 9,12A2,2 0 0,1 7,14M12.65,10C11.83,7.67 9.61,6 7, 6A6, 6 0 0, 0 1, 12A6, 6 0 0, 0 7, 18C9.61, 18 11.83, 16.33 12.65, 14H17V18H21V14H23V10H12.65Z" class="i pk" transform="translate(67.68898437499999, 48) scale(0.65)"></path><text x="13" y="86" class="tf">title<tspan x="145.48" class="ty">VARCHAR</tspan></text></svg></g></g></svg>