<svg class="diagram-root" style="background: #f5f6f6" xmlns="http://www.w3.org/2000/svg" xmlns:xlink="http://www.w3.org/1999/xlink"><style>.diagram-root { font-family: "Helvetica Neue", sans-serif; font-size: 12px; } .t { overflow: visible; } .t-bg { y: 40; fill: #fff;   } .th { fill: #005aa0;   } .tht { fill: #fff; font-size: 14px;  } .tf { fill: #323c46; overflow: visible; } .tf.pk { fill: #005aa0; font-weight: bold; } .tf.fk { font-weight: bold; } .ty { fill: #adb1b5; font-weight: normal; text-anchor: end; } .r { fill: transparent; stroke: #c3c3c3; stroke-width: 1; } .l { stroke: 1; } .i { fill: #c2c7ce; stroke: #c2c7ce; } .i.ix { fill: #afb3b6; stroke: #000; } .fa { fill: transparent; overflow: visible; } .fa .bg.hover { fill: #f7f7f7; } .c { cy: 12; r: 4; stroke: #d2d2dc; fill: #d2d2dc; } .hr { fill: transparent; stroke: #323c46; stroke-opacity: 0.035; stroke-width: 13; } .dc { stroke: #fa5a3c; fill: #fa5a3c; } .x { stroke: white; stroke-width: 1; } .hl .th { fill: #1b9bff; } .hl .tht {  } .fhl .bg { fill: #e7f4ff; } .fhls .bg {  } .r.hl { stroke: #1b9bff; } .dim { opacity: 0.25; }</style><g class="drawing-wrapper" transform="translate(2, 18.33333333333332) scale(1,1)"><g class="rs"><path d="M 67.5 332 m -1, 0 a 1,1 0 1,0 2,0 a 1,1 0 1,0 -2,0 M 67.5 332 m -0.5, 0 a 0.5,0.5 0 1,0 1,0 a 0.5,0.5 0 1,0 -1,0  M67.5 332 L67.5 332 55.5 332 M 67.5 338 m -1, 0 a 1,1 0 1,0 2,0 a 1,1 0 1,0 -2,0 M 67.5 338 m -0.5, 0 a 0.5,0.5 0 1,0 1,0 a 0.5,0.5 0 1,0 -1,0  M67.5 338 L67.5 338 60.5 332 67.5 326 M 67.5 326 m -1, 0 a 1,1 0 1,0 2,0 a 1,1 0 1,0 -2,0 M 67.5 326 m -0.5, 0 a 0.5,0.5 0 1,0 1,0 a 0.5,0.5 0 1,0 -1,0  M55.5 332 C -54.5 332, -32 87, 18 87 M 30 87 m -1, 0 a 1,1 0 1,0 2,0 a 1,1 0 1,0 -2,0 M 30 87 m -0.5, 0 a 0.5,0.5 0 1,0 1,0 a 0.5,0.5 0 1,0 -1,0  M30 87 L30 87 18 87 M24 93 L24 93 24 81" id="h133153459" class="r"></path><path d="M 440.5 93.66666666666667 m -1, 0 a 1,1 0 1,0 2,0 a 1,1 0 1,0 -2,0 M 440.5 93.66666666666667 m -0.5, 0 a 0.5,0.5 0 1,0 1,0 a 0.5,0.5 0 1,0 -1,0  M440.5 93.66666666666667 L440.5 93.66666666666667 452.5 93.66666666666667 M446.5 99.66666666666667 L446.5 99.66666666666667 446.5 87.66666666666667 M452.5 93.66666666666667 C 502.5 93.66666666666667, 625.2 307, 248 307 M 236 307 m -1, 0 a 1,1 0 1,0 2,0 a 1,1 0 1,0 -2,0 M 236 307 m -0.5, 0 a 0.5,0.5 0 1,0 1,0 a 0.5,0.5 0 1,0 -1,0  M236 307 L236 307 248 307 M242 313 L242 313 242 301" id="h1499507187" class="r"></path><path d="M 676.6666666666671 341.1666666666666 m -1, 0 a 1,1 0 1,0 2,0 a 1,1 0 1,0 -2,0 M 676.6666666666671 341.1666666666666 m -0.5, 0 a 0.5,0.5 0 1,0 1,0 a 0.5,0.5 0 1,0 -1,0  M676.6666666666671 341.1666666666666 L676.6666666666671 341.1666666666666 664.6666666666671 341.1666666666666 M 676.6666666666671 347.1666666666666 m -1, 0 a 1,1 0 1,0 2,0 a 1,1 0 1,0 -2,0 M 676.6666666666671 347.1666666666666 m -0.5, 0 a 0.5,0.5 0 1,0 1,0 a 0.5,0.5 0 1,0 -1,0  M676.6666666666671 347.1666666666666 L676.6666666666671 347.1666666666666 669.6666666666671 341.1666666666666 676.6666666666671 335.1666666666666 M 676.6666666666671 335.1666666666666 m -1, 0 a 1,1 0 1,0 2,0 a 1,1 0 1,0 -2,0 M 676.6666666666671 335.1666666666666 m -0.5, 0 a 0.5,0.5 0 1,0 1,0 a 0.5,0.5 0 1,0 -1,0  M664.6666666666671 341.1666666666666 C 614.6666666666671 341.1666666666666, 582.6666666666673 87, 718 87 M 730 87 m -1, 0 a 1,1 0 1,0 2,0 a 1,1 0 1,0 -2,0 M 730 87 m -0.5, 0 a 0.5,0.5 0 1,0 1,0 a 0.5,0.5 0 1,0 -1,0  M730 87 L730 87 718 87 M724 93 L724 93 724 81" id="h3233325729" class="r"></path></g><g class="hrs"></g><g class="ts"><svg width="158.48" height="100" x="30" y="30" id="h3517680912" class="t"><rect height="40" width="158.48" class="th"></rect><text x="13" y="25" class="tht">Titles</text><rect height="60" width="158.48" class="t-bg"></rect><text x="13" y="61" class="tf pk">title_id<tspan x="145.48" class="ty">VARCHAR</tspan></text><path d="M7,14A2,2 0 0,1 5,12A2,2 0 0,1 7,10A2,2 0 0,1 9,12A2,2 0 0,1 7,14M12.65,10C11.83,7.67 9.61,6 7, 6A6, 6 0 0, 0 1, 12A6, 6 0 0, 0 7, 18C9.61, 18 11.83, 16.33 12.65, 14H17V18H21V14H23V10H12.65Z" class="i pk" transform="translate(67.68898437499999, 48) scale(0.65)"></path><text x="13" y="86" class="tf">title<tspan x="145.48" class="ty">VARCHAR</tspan></text></svg><svg width="168.5" height="225" x="67.5" y="250" id="h3299212598" class="t"><rect height="40" width="168.5" class="th"></rect><text x="13" y="25" class="tht">Employees</text><rect height="185" width="168.5" class="t-bg"></rect><text x="13" y="61" class="tf pk">emp_no<tspan x="155.5" class="ty">INTEGER</tspan></text><path d="M7,14A2,2 0 0,1 5,12A2,2 0 0,1 7,10A2,2 0 0,1 9,12A2,2 0 0,1 7,14M12.65,10C11.83,7.67 9.61,6 7, 6A6, 6 0 0, 0 1, 12A6, 6 0 0, 0 7, 18C9.61, 18 11.83, 16.33 12.65, 14H17V18H21V14H23V10H12.65Z" class="i pk" transform="translate(82.162109375, 48) scale(0.65)"></path><text x="13" y="86" class="tf fk">emp_title_id<tspan x="155.5" class="ty">VARCHAR</tspan></text><text x="13" y="111" class="tf">birth_date<tspan x="155.5" class="ty">VARCHAR</tspan></text><text x="13" y="136" class="tf">first_name<tspan x="155.5" class="ty">VARCHAR</tspan></text><text x="13" y="161" class="tf">last_name<tspan x="155.5" class="ty">VARCHAR</tspan></text><text x="13" y="186" class="tf">sex<tspan x="155.5" class="ty">VARCHAR</tspan></text><text x="13" y="211" class="tf">hire_date<tspan x="155.5" class="ty">VARCHAR</tspan></text></svg><svg width="167.17" height="100" x="273.33333333333366" y="11.666666666666677" id="h2403958395" class="t"><rect height="40" width="167.17" class="th"></rect><text x="13" y="25" class="tht">Dept_manager</text><rect height="60" width="167.17" class="t-bg"></rect><text x="13" y="61" class="tf pk">dept_no<tspan x="154.17" class="ty">VARCHAR</tspan></text><path d="M7,14A2,2 0 0,1 5,12A2,2 0 0,1 7,10A2,2 0 0,1 9,12A2,2 0 0,1 7,14M12.65,10C11.83,7.67 9.61,6 7, 6A6, 6 0 0, 0 1, 12A6, 6 0 0, 0 7, 18C9.61, 18 11.83, 16.33 12.65, 14H17V18H21V14H23V10H12.65Z" class="i pk" transform="translate(76.37898437499999, 48) scale(0.65)"></path><text x="13" y="86" class="tf fk">emp_no<tspan x="154.17" class="ty">INTEGER</tspan></text></svg><svg width="167.17" height="100" x="730" y="30" id="h3708248841" class="t"><rect height="40" width="167.17" class="th"></rect><text x="13" y="25" class="tht">Departments</text><rect height="60" width="167.17" class="t-bg"></rect><text x="13" y="61" class="tf pk">dept_no<tspan x="154.17" class="ty">VARCHAR</tspan></text><path d="M7,14A2,2 0 0,1 5,12A2,2 0 0,1 7,10A2,2 0 0,1 9,12A2,2 0 0,1 7,14M12.65,10C11.83,7.67 9.61,6 7, 6A6, 6 0 0, 0 1, 12A6, 6 0 0, 0 7, 18C9.61, 18 11.83, 16.33 12.65, 14H17V18H21V14H23V10H12.65Z" class="i pk" transform="translate(76.37898437499999, 48) scale(0.65)"></path><text x="13" y="86" class="tf">dept_name<tspan x="154.17" class="ty">VARCHAR</tspan></text></svg><svg width="167.16" height="100" x="676.6666666666671" y="259.1666666666666" id="h4086156755" class="t"><rect height="40" width="167.16" class="th"></rect><text x="13" y="25" class="tht">Dept_emp</text><rect height="60" width="167.16" class="t-bg"></rect><text x="13" y="61" class="tf pk">emp_no<tspan x="154.16" class="ty">VARCHAR</tspan></text><path d="M7,14A2,2 0 0,1 5,12A2,2 0 0,1 7,10A2,2 0 0,1 9,12A2,2 0 0,1 7,14M12.65,10C11.83,7.67 9.61,6 7, 6A6, 6 0 0, 0 1, 12A6, 6 0 0, 0 7, 18C9.61, 18 11.83, 16.33 12.65, 14H17V18H21V14H23V10H12.65Z" class="i pk" transform="translate(76.368984375, 48) scale(0.65)"></path><text x="13" y="86" class="tf fk">dept_no<tspan x="154.16" class="ty">VARCHAR</tspan></text></svg><svg width="162.7" height="100" x="407.5" y="324.9999999999999" id="h3858243705" class="t"><rect height="40" width="162.7" class="th"></rect><text x="13" y="25" class="tht">Salaries</text><rect height="60" width="162.7" class="t-bg"></rect><text x="13" y="61" class="tf pk">emp_no<tspan x="149.7" class="ty">INTEGER</tspan></text><path d="M7,14A2,2 0 0,1 5,12A2,2 0 0,1 7,10A2,2 0 0,1 9,12A2,2 0 0,1 7,14M12.65,10C11.83,7.67 9.61,6 7, 6A6, 6 0 0, 0 1, 12A6, 6 0 0, 0 7, 18C9.61, 18 11.83, 16.33 12.65, 14H17V18H21V14H23V10H12.65Z" class="i pk" transform="translate(76.36210937499999, 48) scale(0.65)"></path><text x="13" y="86" class="tf">salary<tspan x="149.7" class="ty">INTEGER</tspan></text></svg></g></g></svg>